<svg viewBox="0 0 72 72" xmlns="http://www.w3.org/2000/svg"><path d="m3.6 48.4s23 .9 25.4 1.1c2.3.2 20.4 1.8 31.9-.6 0 0 5.5-.8 6.1-2.5 0 0-.8-3.3-3-3.5-2.2-.3-11.9-1.6-14-2.6-2.2-1.1-5.1-1.9-5.8-2.2s-3.1-2-3.9-2.5c-.8-.6-6.1-3.9-6.6-4.9s-2-3.3-2-4-1-1.9-1-2.5c-.1-1.4-.7-2.7-1.6-3.8-1.2-1.2-1-3.8-2.4-3.9s-4.2 1.6-4.8 2.3-10.8 3-12 3-2-.4-2.1.5c-.1 1-2 9.1-1.9 10.4 0-.2-2.5 11.9-2.3 15.7z" fill="#fff"/><path d="m25.6 32.4.6 1.7 7.9 2.4 2.6 1.6-3.2 5.5 3.2 6.5-17-1.1-8.6-6.1-5.7-6.9.5-3.5 10.1-1z" fill="#fff"/><path d="m39 34.7-5.8 9.1 3.1 5.8c1 .2 2 .4 3 .5 6.9.3 13.8-.1 20.6-1.2 1.5-.3 7.5-1.4 6.7-2.9-.2-.7-.5-1.3-.9-1.9-.5-.6-1.2-1.1-2-1.3s-7-1-7-1-6.2-1.2-7-1.6-4-1.6-4.7-1.8c-2.1-1.1-4.1-2.4-6-3.7z" fill="#565656"/><path d="m27.5 27.3s-2.8 1.9-2.8 2.2c.1.6.3 1.2.6 1.8l.9 2.8 3.2.9s3.2.9 5 1.6c1.6.8 3.2 1.7 4.7 2.7.6.5-.1-3.5-.1-3.5s-8.3-3-8.8-3.7c-1.1-1.4-2-3-2.7-4.8z" fill="#565656"/><path d="m33.5 50h-.1l-15.5-10.6c-.1-.1-.1-.2-.1-.3l4.5-7.7c.1-.1.2-.2.4-.1.1.1.2.2.1.4l-4.4 7.3 15.3 10.5c.1.1.1.2.1.4-.2 0-.2.1-.3.1z" fill="#d6d6d6"/><path d="m6.6 27.9 1.3-6.3s1.2-.2 1.4-.1c.2 0 4-.8 5-.8 1.1 0 7.5-2.1 7.5-2.1l.7 3.4zm17.9 1.6-1.2.6c-1.3.5-2.6 1-3.9 1.7 1.2 0 2.4.2 3.6.4.9.2 1.7.3 2.6.2" fill="#262626"/><path d="m22.7 18.5s3.7 0 4.2 1.7c.2.6.8 1.2 1.1 1.9.6 1.4.8 2.9.8 4.4l-3.2 2.5-2.9 1.5s2.4-1.4-.4.2c-.2.1-2.9 1.1-2.9 1.1l-3.5-.2-9.9.9.7-4.5 16-5.9-.7-3.4zm-14.3 21.3 2.7 3.1 8.4 6.1s-3.8-.1-4.7-.2-11.1-.4-11.1-.4 1-11.5 1.7-12.4c0 0 2.1 3.4 3 3.8zm60.1 8.6c-2.7 1.9-5.7 3.2-9 3.6-.9.2-12.7 3.2-30.9 2.4s-24-.6-24.3-.5h-.8l.4 1.3s-.9.1.5.2 39.4.2 40.9.1c1.6-.1 19.3-1.8 20.9-3.5 2-2 2.7-2.4 2.4-3.3" fill="#565656"/><path d="m68.3 48s-.4-2.1-.9-1.7c-1 .7-2.2 1.4-3.4 1.8-6.6 1.4-13.3 2.1-20 2-9.2-.3-26.8-1.2-27.4-1.2s-13-.7-13-.5-.2 5.3-.2 5.3c1 .5 2 .7 3.1.6 1.9 0 20.4.6 22.2.1 1.8-.4 14.2 0 16-.2s15.6-1.5 18.6-3.4 4.6-1.5 4.7-1.9c.1-.5.3-.9.3-.9zm-4.8-5.3-11.8 2.1-4.5 1.7 2.4-6.4" fill="#fff"/><g fill="#171918"><path d="m47.2 46.8c-.1 0-.3-.1-.3-.3v-.1l2.4-6.4c0-.1.2-.2.3-.2s.2.2.2.3l-2.2 5.9 3.9-1.5 11.9-2.2c.1 0 .3.1.3.2s-.1.3-.2.3l-11.8 2.1-4.4 1.7zm-29.6 9.1c-5 0-9.1-.1-13-.3-.3 0-.7-.1-.9-.2-.4-.4-.6-.9-.5-1.5 0-.1 0-.1.1-.2.1 0 .1-.1.2-.1 2.6.3 5.3.4 7.9.5 5 .1 10 .2 15.1.1l14.9-.3c4.9 0 9.8-.5 14.7-1.3 10.4-2.1 12-3.8 12-4.6 0-.1.1-.3.3-.3.1 0 .2 0 .2.1l.1.2c.2.2.2.2.2.3.1.6 0 1.1-.3 1.6-.9 1.6-2.7 2.3-4.5 2.9-4.6 1.4-9.3 2.2-14.1 2.5l-1 .1c-2 .2-4 .3-6 .3l-8.5.1h-14.9zm-13.9-1.7c0 .3.1.6.3.8.2.1.4.2.7.2 4.3.2 8.9.3 14.9.3h14.9l8.5-.1c2 0 4-.2 6-.3l.9-.2c4.8-.3 9.5-1.1 14-2.5 1.7-.5 3.4-1.2 4.2-2.7.2-.3.3-.7.3-1-1.3 2.3-9.4 3.9-12.2 4.5-4.9.8-9.8 1.3-14.8 1.3-5 .1-10 .2-14.9.3s-10.1 0-15.1-.1c-2.6-.1-5.1-.3-7.7-.5z"/><path d="m3.5 54.1c-.1 0-.2-.1-.3-.2 0-1.2-.1-5.2 0-5.6 0-.1.1-.2.3-.2s23.2.9 25.4 1.1h.4c13.2 1.1 24.4.8 31.5-.7 1.5-.2 5.6-1.1 6-2.4 0-.1.1-.1.1-.2h.2c.7.4 1.9 1.4 1.2 2.7 0 .1-.2.2-.3.2s-.2-.2-.2-.3v-.1c.3-.7 0-1.6-.7-1.9-1 1.6-5.7 2.3-6.3 2.4-7.1 1.5-18.4 1.7-31.6.7h-.4c-2.2-.2-22.8-.9-25.2-1v5.2c.1.2-.1.4-.1.3-.1.1-.1.1 0 0z"/><path d="m44.5 50.4c-4.6 0-9.7-.2-15.2-.7h-.3c-2.3-.2-24.9-1-25.3-1.1-.1 0-.2-.1-.3-.2-.2-3.7 2.1-15.1 2.2-16 .3-2.5.7-4.9 1.3-7.3.3-1.5.6-2.7.6-3.1 0-.3.1-.5.3-.7.3-.2.7-.2 1.2-.2.3 0 .6.1.8.1 2.2-.2 4.2-.6 6.2-1.1 3.6-.9 5.5-1.5 5.7-1.7.6-.7 3.4-2.4 5-2.3.9.1 1.3 1.1 1.6 2 .2.7.5 1.4.9 1.9 1 1.1 1.6 2.5 1.7 3.9.1.4.2.8.5 1.1.3.4.5.9.6 1.4.4 1.1.9 2.1 1.5 3.1l.5.8c.4.7 4.1 3.2 5.7 4.2l.9.6c.8.6 3.2 2.2 3.9 2.5.2.1.8.3 1.4.5 1.5.5 2.9 1.1 4.4 1.7 1.9.9 10 2.1 14 2.6 2.3.3 3.2 3.6 3.2 3.7v.1c-.6 1.8-5.7 2.6-6.3 2.7-5.7 1.2-11.2 1.6-16.7 1.5zm-40.6-2.3c2.4.1 23 .9 25.1 1.1h.4c13.2 1.1 24.4.8 31.5-.7 1.5-.2 5.3-1 5.9-2.3-.1-.5-.9-3-2.8-3.3-.5-.1-11.7-1.5-14.1-2.6-1.4-.6-2.8-1.2-4.3-1.7-.7-.2-1.2-.4-1.5-.6-.7-.3-3.1-2-4-2.6l-.8-.4c-2.6-1.7-5.4-3.6-5.8-4.4l-.5-.9c-.7-1-1.2-2.1-1.6-3.3-.1-.4-.3-.8-.5-1.1-.3-.4-.5-.8-.6-1.3-.1-1.3-.6-2.6-1.5-3.6-.5-.6-.9-1.4-1.1-2.1-.3-1-.6-1.6-1.1-1.7-1.3-.1-4 1.5-4.5 2.2-.7.8-11.2 3-12.2 3-.3 0-.6 0-.9-.1-.4 0-.7-.1-.8 0-.2.1-.2.3-.2.4 0 .4-.3 1.6-.6 3.1-.6 2.4-1 4.8-1.3 7.2v.1c0 .1-2.3 11.7-2.2 15.6z"/><path d="m39.1 39.6h-.1l-4.7-2.7-8.1-2.6c-.1 0-.1-.1-.2-.2l-1.5-4.6c0-.1 0-.2.1-.3l3.9-3c-.2-2.8-.7-5.7-3.1-7.1-.8-.4-1.8-.6-2.7-.5h-.4c.1.9.5 3.2.5 3.2 0 .1 0 .2-.2.3-6.2 2.4-15.5 6-16 6.2-.1.1-.3.1-.4-.1 0-.1-.1-.1 0-.2 0-.2 0-.2 8.2-3.4l7.9-3c-.1-.7-.5-2.9-.5-3.4 0-.1 0-.1.1-.2 0-.1.1-.1.2-.1h.7c1-.1 2 0 2.9.5 2.7 1.7 3.1 4.8 3.3 7.7 0 .1 0 .2-.1.2l-3.9 3 1.4 4.3 8 2.5 4.7 2.7c.1.1.2.2.1.3.1.4 0 .5-.1.5zm-19.6 9.5c-.1 0-.2 0-.2-.1-.4-.3-5.2-3.7-8.3-5.9-.6-.6-5.4-6.3-5.8-6.9-.1-.1 0-.3.1-.3s.2 0 .3.1c.2.4 3.5 4.3 5.7 6.8 8.5 5.9 8.5 6 8.5 6.2-.1 0-.2.1-.3.1zm35.9 4.1c-.2 0-.3-.1-.3-.3 0-.1.1-.3.3-.3 1.4 0 9.3-2.4 9.7-2.6 1-.4 1.9-1 2.8-1.6 0-.1.2-.2.3-.2s.2.1.2.2c.1.2 0 .4-1.4 1.2-.7.4-1.5.8-1.6.9-.5.3-8.5 2.7-10 2.7z"/><path d="m24.7 30c-.1 0-.2-.1-.2-.2l-2.1-7.7c0-.1 0-.3.2-.3.1 0 .3 0 .3.2l2.1 7.7c0 .1-.1.2-.3.3z"/><path d="m21.8 22.5c-.1 0-.3-.1-.3-.2s.1-.2.2-.3l5.1-1.9c.1 0 .3 0 .3.2 0 .1 0 .3-.2.3z"/></g><circle cx="26.3" cy="22.3" fill="#fff" r=".6"/><path d="m26.3 23.1c-.5 0-.8-.4-.8-.8 0-.5.4-.8.8-.8.5 0 .8.4.8.8.1.5-.3.8-.8.8zm0-1.1c-.2 0-.3.1-.3.3s.1.3.3.3.3-.1.3-.3c.1-.2-.1-.3-.3-.3z" fill="#171918"/><path d="m39.1 39.3 8.9 4.7" fill="none"/><path d="m48 44.3h-.1l-8.9-4.7c-.1-.1-.2-.2-.1-.3s.2-.2.3-.1l8.9 4.7c.1.1.2.2.1.3 0 0-.1.1-.2.1zm-42.1-11.6c-.1 0-.2-.2-.2-.3s.1-.2.2-.2l9.9-.9 9.9.8c.1 0 .2.1.2.3 0 .1-.1.2-.3.2l-9.9-.8z" fill="#171918"/><path d="m19.4 32c-.1 0-.3-.1-.3-.3 0-.1.1-.2.2-.2l5.3-2.2c.1-.1.3 0 .3.1.1.1 0 .3-.1.3l-5.3 2.2zm23.6 18.4c-.1 0-.3-.1-.3-.2s0-.2.1-.2l4.2-3.6c.1-.1.3-.1.4 0s.1.2 0 .3l-4.2 3.6c-.1.1-.2.1-.2.1zm-6.7-.3c-.1 0-.2-.1-.2-.2l-2.8-6.2v-.2l5.5-9c.1-.1.2-.1.4-.1.1.1.1.2.1.3l-5.5 8.8 2.8 6.1c.1.1 0 .3-.1.3z" fill="#171918"/><path d="m38.9 36-8.7-3.5c-.1 0-.1-.1-.1-.1l-2.7-4.9c-.1-.1-.1-.3.1-.4.1-.1.3-.1.4.1l2.6 4.8 8.6 3.5c.1.1.2.2.1.3s-.2.2-.3.2z" fill="#171918"/><path d="m31.2 27.5c-.7-.4-1.5-.8-2.3-.9-.7-.1-1.3-.2-2-.5-.4-.2-.7-.4-1.1-.6 0-.1 0-.7.4-.8s.5-.3 1.1-.1c.9.3 1.9.5 2.8.6.4 0 .7.1 1 .2 0 .1.6.6.6.6" fill="#262626"/><path d="m29.6 30.7s-1.9 1-2 1.1-.7.4-.7.4c-.1-.3-.1-.6-.1-.9 0 0 1.2-1.7 1.9-1.9s2.8-2.3 2.8-2.3l.4-.9.2 2.2z" fill="#262626"/><path d="m31.9 31.1s-2.6-.3-2.7-.3l.9-1.3.2.2 1.7.2" fill="#262626"/><path d="m33.3 30.8v-.4s.1-.4.1-.7c0-.2.1-.6-.2-.7-.2-.1-.5-.1-.7 0-.4.9-.8 1.8-.9 2.8 0 0-.3.8-.1 1.1.1.3.5.5.9.4.3-.1.5-.6.7-.9s.2-.7.3-1c-.1-.1-.1-.4-.1-.6z" fill="#262626"/><path d="m32.1 33.7c-.4 0-.7-.2-.9-.6-.1-.4-.1-.9.1-1.3.2-1 .5-1.9.9-2.8 0 0 0-.1.1-.1.3-.2.7-.2.9 0 .3.2.3.7.3.9 0 .1 0 .2-.1.3 0 .1 0 .2-.1.3v1.2c0 .4-.1.8-.3 1.1v.1c-.1.4-.4.7-.8.9zm.6-4.4c-.4.8-.7 1.7-.9 2.7-.1.3-.2.6-.2.9.1.2.3.4.5.3s.4-.5.5-.7v-.1c.1-.3.2-.6.2-.9v-.7-.4c0-.1 0-.3.1-.4 0-.1 0-.2.1-.3v-.4c0-.1-.2-.1-.3 0z" fill="#171918"/><path d="m31.9 30.2-1.2-.1c-.1 0-.3-.1-.3-.3s.1-.3.3-.3l1.2.1c.1 0 .3.1.3.3-.1.2-.2.3-.3.3z" fill="#171918"/><path d="m27.1 32.3c-.1 0-.3-.1-.2-.3 0-.1 0-.2.1-.2 1.6-1.1 4.1-2.8 4.3-2.9l.6-.7c0-.7-.1-1.4-.2-2.1-.1-.1-.1-.3 0-.3.1-.1.3-.1.4 0 .3.3.4 1.5.4 2.6 0 .1 0 .1-.1.2l-.7.7s-.1.1-4.4 3z" fill="#171918"/><path d="m26.7 32c-.2 0-.3-.2-.2-.3.2-.9 1.6-2 2.9-3l1.5-1.2c-.9-.4-1.8-.6-2.7-.8-.7.1-2-.8-2.2-.9l-.1-.1c-.1-.2-.1-.5 0-.8.2-.3.6-.5.9-.6.1 0 .5.1 1.6.3s2.5.5 2.8.5c.1 0 .1 0 .2.1l.5.6v.1c0 .1.3.8-.8 2-.5.5-1 .9-1.6 1.3-1.1.9-2.6 2-2.7 2.7zm1.4-5.9c1 .2 2.1.5 3 .9.3-.3.4-.7.4-1l-.4-.5c-.4 0-1.5-.2-2.8-.5-.7-.1-1.4-.3-1.5-.3-.2.1-.4.2-.6.4v.2c.5.4 1.1.7 1.8.8z" fill="#171918"/><circle cx="26.9" cy="31.9" fill="#171918" r=".5"/><path d="m47.6 38.7c-.2-.3-.6-.5-.9-.3-.7.2-.2.8-.2.8m-8.6-4.5-1.2-.4s-.2 1.2-.9 1.3c-.8.1-1.2-.5-.8-1.8.3-.8.4-1.6.2-2.4-.1 0 1.1.5 1.1.5.2.2.3.4.4.7.2.3.2.8.4.7.3-.1.5-.2.6-.1" fill="#262626"/><path d="m35.7 35.8c-.3 0-.7-.1-.9-.4-.3-.5-.3-1.2 0-1.7.3-.7.3-1.5.2-2.2-.1-.1-.1-.1-.1-.2s.2-.2.3-.2.1 0 .1.1l1 .4s.1 0 .1.1c.2.2.4.5.5.7.1.1.1.2.1.4l.1.2h.2c.2-.1.4-.1.6.1.1.1.1.3 0 .4s-.2.1-.3 0h-.1l-.3.1c-.3.1-.4-.3-.5-.6 0-.1-.1-.2-.1-.3-.1-.2-.2-.4-.4-.6l-.5-.2c.1.7 0 1.5-.3 2.1-.2.4-.2.9 0 1.2.1.2.3.2.5.2.4 0 .6-.8.7-1.1 0-.1.1-.2.3-.2h.1l1.2.4c.1 0 .2.2.2.3s-.2.2-.3.2l-.9-.3c-.1.4-.4 1.1-1.1 1.2z" fill="#171918"/><path d="m41 35.4s-1.4-.2-1.5-.1c-.1.2.1-.7 1.3-.5m7.2 5.7c.1-.1 1.1-.8.4-1.5s-1.2-1-1.2-1l-.2.2c.5.2.2 1.7.2 1.7" fill="#262626"/><path d="m48 40.7c-.1 0-.3-.1-.3-.3 0-.1 0-.1.1-.2h.1c.3-.3.5-.5.5-.7 0-.1-.1-.2-.2-.3-.3-.3-.6-.6-.8-.7.1.5.1 1-.1 1.5 0 .1-.2.2-.3.2s-.2-.2-.2-.3c.2-.7.2-1.4 0-1.4-.1-.1-.2-.2-.1-.3l.1-.1.3-.2c.1-.1.2-.1.3 0 0 0 .5.4 1.1 1 .2.2.3.4.3.7-.1.5-.3.9-.7 1.2.1-.1 0-.1-.1-.1z" fill="#171918"/><path d="m43.5 38.9c.1-.9-.2-1.8-.7-2.6.7.1 1.4.5 2 .9.3.4.3 2.2.3 2.2s-.3.5-.5.5-1.1.4-1.1-1z" fill="#262626"/><path d="m44.2 40.2c-.2 0-.5-.1-.7-.2-.3-.3-.4-.7-.3-1.1.1-.9-.2-1.7-.7-2.4-.1-.1-.1-.3 0-.4s.1-.1.2-.1c.8.1 1.6.5 2.2 1.1.3.8.5 1.6.4 2.4v.1c-.1.2-.4.7-.8.6zm-.9-3.5c.3.7.5 1.4.4 2.2 0 .3 0 .5.2.7.2.1.3.1.5.1h.2c.1-.1.2-.2.2-.3 0-.7-.1-1.3-.3-2-.3-.3-.7-.5-1.2-.7z" fill="#171918"/><path d="m40.4 34.7s1.2.2 1.5.7c.5.8.7 1.8.6 2.7 0 0-.2.7-.6.4-.5-.2-.8-.7-.8-1.3-.1-.8-.3-1.7-.7-2.5z" fill="#262626"/><path d="m42.1 38.8c-.1 0-.2-.1-.3-.1l-.2-.1c-.4-.3-.7-.8-.7-1.3-.1-.8-.3-1.6-.6-2.4-.1-.1-.1-.2 0-.4.1-.1.2-.1.2-.1.1 0 1.3.3 1.6.9.5.9.7 1.9.6 2.9 0 .1-.2.5-.5.6zm-1.2-3.7c.2.7.4 1.4.4 2.2 0 .4.2.7.5.9l.2.2c.1-.1.1-.2.2-.3.1-.9-.1-1.8-.6-2.5-.1-.3-.4-.5-.7-.5z" fill="#171918"/><path d="m37.4 33.1c.5.3.2 1.9.2 3.1-.1 1.2.5 1.2.8 1.2.2 0 .5-.1.7-.6.1-.4.2-.8.2-1.2 0-.3-.4-1.8-.4-1.9s-.9-.6-1-.7c-.2 0-.4 0-.5.1z" fill="#262626"/><path d="m38.4 37.7h-.1c-.5 0-1-.2-.9-1.5 0-.3 0-.5.1-.8.1-.8.2-2-.1-2.1-.1-.1-.2-.2-.1-.3 0-.1.1-.1.2-.1h.5c.4.2.7.4 1.1.7.1 0 .1.1.1.2 0 0 .1.2.1.4l.3 1.5c0 .5-.1.9-.2 1.3-.2.4-.6.7-1 .7zm-.5-4.3c.1.7.1 1.4 0 2.1 0 .3 0 .5-.1.8 0 .9.3.9.5.9h.1c.1 0 .3-.1.4-.4.1-.4.2-.8.2-1.2 0-.2-.2-1-.3-1.4l-.1-.3z" fill="#171918"/><path d="m47 38.2-.6.5" fill="none"/><path d="m46.4 38.9c-.1 0-.3-.1-.3-.3 0-.1 0-.2.1-.2l.6-.5c.1-.1.3 0 .3.1.1.1 0 .2 0 .3l-.6.5c0 .1-.1.1-.1.1z" fill="#171918"/></svg>